<svg width="960" height="540" viewBox="0 0 960 540" xmlns="http://www.w3.org/2000/svg">
  <defs>
    <linearGradient id="bg2" x1="0%" y1="0%" x2="100%" y2="100%">
      <stop offset="0%" stop-color="#0B162F"/>
      <stop offset="100%" stop-color="#03050A"/>
    </linearGradient>
    <linearGradient id="shine" x1="0%" y1="0%" x2="100%" y2="0%">
      <stop offset="0%" stop-color="#7CA7D1" stop-opacity="0.9"/>
      <stop offset="100%" stop-color="#325D87" stop-opacity="0.9"/>
    </linearGradient>
  </defs>
  <rect width="960" height="540" fill="url(#bg2)"/>
  <rect x="80" y="90" width="520" height="280" rx="32" fill="#0F1F3A" stroke="#325D87" stroke-width="3" stroke-opacity="0.6"/>
  <rect x="120" y="140" width="320" height="80" rx="18" fill="#1E2A3B" stroke="#7CA7D1" stroke-opacity="0.6"/>
  <rect x="160" y="170" width="120" height="20" rx="8" fill="url(#shine)"/>
  <rect x="120" y="250" width="180" height="60" rx="18" fill="#14243D" stroke="#325D87" stroke-opacity="0.8"/>
  <rect x="320" y="250" width="180" height="60" rx="18" fill="#122238" stroke="#7CA7D1" stroke-opacity="0.6"/>
  <path d="M650 160C705 150 770 190 780 250C792 320 740 370 690 380C630 392 590 340 590 300C590 240 600 170 650 160Z" fill="#11263F" stroke="#7CA7D1" stroke-opacity="0.45" stroke-width="3"/>
  <circle cx="700" cy="260" r="46" fill="#1E2A3B" stroke="#7CA7D1" stroke-opacity="0.5" stroke-width="3"/>
  <circle cx="700" cy="260" r="20" fill="#7CA7D1" opacity="0.65"/>
  <text x="120" y="410" fill="#C5DAED" font-family="Montserrat, Arial, sans-serif" font-size="28" font-weight="700">Clean, structured marketing art</text>
  <text x="120" y="440" fill="#9DB7D5" font-family="Geist, Arial, sans-serif" font-size="18">Room for copy, clear focal point, BrainDrive palette.</text>
</svg>
