<?xml version="1.0" encoding="UTF-8"?>
<svg id="Layer_2" data-name="Layer 2" xmlns="http://www.w3.org/2000/svg" xmlns:xlink="http://www.w3.org/1999/xlink" viewBox="0 0 806.07 1055.6">
  <defs>
    <style>
      .cls-1 {
        fill: url(#_Безымянный_градиент_15);
      }

      .cls-2 {
        fill: #fff;
      }

      .cls-3 {
        fill: #fefffe;
      }

      .cls-4 {
        fill: red;
      }

      .cls-5 {
        fill: #000515;
      }
    </style>
    <linearGradient id="_Безымянный_градиент_15" data-name="Безымянный градиент 15" x1="114.13" y1="154.92" x2="691.93" y2="732.72" gradientUnits="userSpaceOnUse">
      <stop offset="0" stop-color="#e7f9fe"/>
      <stop offset=".52" stop-color="#95cff5"/>
      <stop offset=".58" stop-color="#8ec7ed"/>
      <stop offset=".67" stop-color="#7cb1d9"/>
      <stop offset=".78" stop-color="#608db7"/>
      <stop offset=".91" stop-color="#385c89"/>
      <stop offset="1" stop-color="#1a3666"/>
    </linearGradient>
  </defs>
  <g id="_Слой_1" data-name="Слой 1">
    <g>
      <g>
        <path class="cls-4" d="M391.44,360.79v.73s-.12-.04-.15-.08l.15-.66Z"/>
        <path class="cls-4" d="M414.8,361.49s-.12.04-.15.04v-.7l.15.66Z"/>
      </g>
      <g>
        <path class="cls-4" d="M391.44,360.79v.73s-.12-.04-.15-.08l.15-.66Z"/>
        <path class="cls-4" d="M414.8,361.49s-.12.04-.15.04v-.7l.15.66Z"/>
      </g>
      <path class="cls-5" d="M769,376.37c18.45-60.13-14.66-136.47-48.69-160.49,1.04-71.58-44.39-130.83-113.08-147.22-17.67-34.65-56.92-61.41-99.73-67.37-39.87-5.57-76.45,6.88-104.45,35.15C375.05,8.18,338.46-4.27,298.59,1.3c-42.81,5.96-82.1,32.72-99.77,67.37-68.68,16.4-114.08,75.64-113.04,147.22-34.07,24.02-67.17,100.35-48.69,160.49C2.91,417.83-8.34,477.62,6.24,541.77c12.88,56.85,43.97,104.07,80.48,123.32-2.75,42.54,8.12,78.54,31.71,104.53,21.97,24.25,53.14,37.78,90.45,39.41,13.96,37.9,50,62.26,96.18,64.19,1.89.08,3.83.12,5.72.12,38.48,0,73.21-16.4,92.27-42.38,19.03,25.99,53.79,42.38,92.23,42.38,1.93,0,3.83-.04,5.76-.12,46.13-1.93,82.18-26.3,96.14-64.19,37.36-1.62,68.49-15.16,90.49-39.41,23.55-25.99,34.46-61.99,31.71-104.53,36.51-19.26,67.56-66.48,80.48-123.32,14.54-64.16,3.29-123.94-30.86-165.4ZM414.65,58.03c23.32-26.61,55.03-38.59,89.64-33.76,32.17,4.49,61.84,22.78,77.73,47.1-32.64,11.68-62.53,41.49-72.59,66.63l21.54,8.59c7.81-19.53,37.2-49.73,67.98-55.96,57.85,12.49,96.87,60.79,98.07,120.04h-53.02c-.7-8.04-2.01-16.24-3.91-24.56l-22.58,5.18c8.16,35.66,3.44,68.95-13.3,93.74-11.72,17.36-28.62,28.93-46.33,31.75l3.63,22.93c24.05-3.83,46.64-19.03,61.91-41.73,12.41-18.37,19.49-40.3,20.88-64.12h61.14c27.53,16.36,55.84,83.57,42,133.46h-44.28c.43-4.87.62-9.94.62-15.2h-23.2c0,31.32-8.78,54.53-24.09,63.61-16.9,10.02-38.87,7.73-55.96-5.8-13.38-10.6-30.28-18.79-50.2-24.4l-6.3,22.35c16.98,4.76,31.13,11.56,42.07,20.26,9.13,7.23,19.3,12.18,29.78,14.81v66.36c0,16.2-6.61,30.94-18.18,40.41-10.05,8.28-21.89,11.56-33.3,9.2-13.73-2.82-25.99-13.46-34.57-30.01l-20.61,10.67c6.03,11.64,13.65,21.19,22.39,28.38v47.26c0,39.33-31.98,71.31-71.31,71.31h-45.67v-115.28h52.28l-37.32-150.16c44.24-11.76,76.92-52.17,76.92-100.04,0-53.13-40.26-97.03-91.88-102.83V58.03ZM391.44,804.66c-13.23,33.06-53.25,46.72-85.43,45.36-29.82-1.24-65.12-15.78-76.61-52.59v-.04c6.92-25.29,30.86-38.9,50.54-38.9v-23.2c-26.99,0-59.4,17.63-71.16,50.51-30.43-1.55-55.73-12.45-73.21-31.75-18.41-20.3-27.3-48.8-25.95-82.95,7.11.7,13.73,1.04,19.95,1.04,44.32,0,67.13-17.75,87.17-45.48l-18.79-13.61c-20.11,27.84-41.46,41.53-95.83,33.72t-.08-.04c-32.06-13.84-61.37-57.89-73.21-110.1-12.84-56.5-2.86-110.64,26.72-146.1h51.28c5.57,20.81,16.05,36.39,30.86,45.17,9.09,5.38,19.06,8.43,29.27,9.24v64.39c0,23.16,9.71,44.43,26.64,58.36,12.18,10.02,26.26,15.24,40.61,15.24,4.02,0,8.04-.43,12.07-1.24,1.66-.35,3.29-.73,4.91-1.24v34.8c0,52.13,42.42,94.51,94.55,94.51h45.67v94.9ZM391.44,686.56h-45.67c-39.33,0-71.35-31.98-71.35-71.31v-47.26c8.78-7.15,16.36-16.74,22.39-28.38l-20.57-10.67c-8.59,16.55-20.88,27.19-34.57,30.01-11.45,2.36-23.24-.93-33.3-9.2-11.56-9.47-18.18-24.21-18.18-40.41v-66.36c10.44-2.63,20.61-7.58,29.74-14.81,10.94-8.7,25.1-15.51,42.07-20.26l-6.26-22.35c-19.95,5.61-36.85,13.81-50.2,24.4-17.13,13.54-39.06,15.82-55.96,5.8-15.31-9.09-24.13-32.29-24.13-63.61h-23.2c0,5.26.23,10.33.66,15.2h-44.28c-13.88-49.89,14.42-117.1,41.96-133.46h61.18c1.39,23.86,8.43,45.79,20.84,64.12,15.31,22.7,37.86,37.9,61.91,41.73l3.67-22.93c-17.75-2.82-34.65-14.39-46.37-31.75-16.71-24.79-21.42-58.08-13.26-93.74l-22.62-5.18c-1.89,8.31-3.21,16.47-3.87,24.56h-53.06c1.2-59.24,40.22-107.55,98.07-120.04,30.82,6.23,60.21,36.43,67.98,55.96l21.58-8.59c-10.05-25.14-39.95-54.95-72.59-66.63,15.89-24.32,45.52-42.62,77.69-47.1,34.65-4.83,66.32,7.15,89.68,33.76v160.22c-51.66,5.8-91.92,49.69-91.92,102.83,0,47.88,32.68,88.29,76.92,100.04l-37.32,150.16h52.32v115.28ZM403.05,279.04c-4.02,0-7.93.58-11.6,1.62-17.6,5.03-30.43,21.23-30.43,40.41s12.76,35.31,30.28,40.37l.15-.66v.73s-.12-.04-.15-.08l-9.24,37.12c-34.15-9.24-59.32-40.49-59.32-77.5,0-40.33,29.93-73.82,68.72-79.43,3.79-.58,7.66-.85,11.6-.85s7.81.27,11.6.85c38.79,5.61,68.68,39.1,68.68,79.43,0,37.01-25.14,68.26-59.28,77.5l-9.24-37.09s-.12.04-.15.04v-.7l.15.66c17.48-5.1,30.28-21.27,30.28-40.41s-12.88-35.38-30.43-40.41c-3.67-1.04-7.58-1.62-11.6-1.62ZM777.23,536.63c-11.87,52.21-41.19,96.25-73.24,110.1t-.08.04c-54.33,7.81-75.68-5.88-95.83-33.72l-18.79,13.61c20.07,27.73,42.85,45.48,87.2,45.48,6.19,0,12.84-.35,19.95-1.08,1.35,34.15-7.54,62.69-25.99,82.99-17.48,19.26-42.69,30.16-73.17,31.71-11.79-32.87-44.16-50.47-71.16-50.47v23.2c19.68,0,43.54,13.61,50.51,38.86-11.41,36.89-46.75,51.43-76.61,52.67-32.14,1.39-72.2-12.3-85.39-45.36v-94.9h45.67c52.13,0,94.51-42.38,94.51-94.51v-34.8c1.62.5,3.25.89,4.91,1.24,4.02.81,8.04,1.24,12.07,1.24,14.35,0,28.46-5.22,40.64-15.24,16.94-13.92,26.64-35.19,26.64-58.36v-64.43c10.21-.77,20.19-3.83,29.24-9.2,14.81-8.78,25.29-24.36,30.86-45.17h51.32c29.55,35.46,39.52,89.6,26.72,146.1Z"/>
      <path class="cls-3" d="M483.33,321.07c0,37.01-25.14,68.26-59.28,77.5l-9.24-37.09c17.48-5.1,30.28-21.27,30.28-40.41s-12.88-35.38-30.43-40.41c-3.67-1.04-7.58-1.62-11.6-1.62s-7.93.58-11.6,1.62c-17.6,5.03-30.43,21.23-30.43,40.41s12.76,35.31,30.28,40.37l-9.24,37.12c-34.15-9.24-59.32-40.49-59.32-77.5,0-40.33,29.93-73.82,68.72-79.43,3.79-.58,7.66-.85,11.6-.85s7.81.27,11.6.85c38.79,5.61,68.68,39.1,68.68,79.43Z"/>
      <path class="cls-1" d="M391.44,218.25V58.03c-23.36-26.61-55.03-38.59-89.68-33.76-32.18,4.49-61.8,22.78-77.69,47.1,32.64,11.68,62.53,41.49,72.59,66.63l-21.58,8.59c-7.77-19.53-37.16-49.73-67.98-55.96-57.85,12.49-96.87,60.79-98.07,120.04h53.06c.66-8.08,1.97-16.24,3.87-24.56l22.62,5.18c-8.16,35.66-3.44,68.95,13.26,93.74,11.72,17.36,28.62,28.93,46.37,31.75l-3.67,22.93c-24.05-3.83-46.6-19.03-61.91-41.73-12.41-18.33-19.45-40.26-20.84-64.12h-61.18c-27.53,16.36-55.84,83.57-41.96,133.46h44.28c-.43-4.87-.66-9.94-.66-15.2h23.2c0,31.32,8.82,54.53,24.13,63.61,16.9,10.02,38.83,7.73,55.96-5.8,13.34-10.6,30.24-18.79,50.2-24.4l6.26,22.35c-16.98,4.76-31.13,11.56-42.07,20.26-9.13,7.23-19.3,12.18-29.74,14.81v66.36c0,16.2,6.61,30.94,18.18,40.41,10.05,8.28,21.85,11.56,33.3,9.2,13.69-2.82,25.99-13.46,34.57-30.01l20.57,10.67c-6.03,11.64-13.61,21.23-22.39,28.38v47.26c0,39.33,32.02,71.31,71.35,71.31h45.67v-115.28h-52.32l37.32-150.16c-44.24-11.76-76.92-52.17-76.92-100.04,0-53.13,40.26-97.03,91.92-102.83ZM345.77,709.76c-52.13,0-94.55-42.38-94.55-94.51v-34.8c-1.62.5-3.25.89-4.91,1.24-4.02.81-8.04,1.24-12.07,1.24-14.35,0-28.42-5.22-40.61-15.24-16.94-13.92-26.64-35.19-26.64-58.36v-64.39c-10.21-.81-20.19-3.87-29.27-9.24-14.81-8.78-25.29-24.36-30.86-45.17h-51.28c-29.58,35.46-39.56,89.6-26.72,146.1,11.83,52.21,41.15,96.25,73.21,110.1t.08.04c54.37,7.81,75.72-5.88,95.83-33.72l18.79,13.61c-20.03,27.73-42.85,45.48-87.17,45.48-6.23,0-12.84-.35-19.95-1.04-1.35,34.15,7.54,62.65,25.95,82.95,17.48,19.3,42.77,30.2,73.21,31.75,11.76-32.87,44.16-50.51,71.16-50.51v23.2c-19.68,0-43.62,13.61-50.54,38.9v.04c11.49,36.82,46.79,51.36,76.61,52.59,32.17,1.35,72.2-12.3,85.43-45.36v-94.9h-45.67ZM750.51,390.53h-51.32c-5.57,20.81-16.05,36.39-30.86,45.17-9.05,5.38-19.03,8.43-29.24,9.2v64.43c0,23.16-9.71,44.43-26.64,58.36-12.18,10.02-26.3,15.24-40.64,15.24-4.02,0-8.04-.43-12.07-1.24-1.66-.35-3.29-.73-4.91-1.24v34.8c0,52.13-42.38,94.51-94.51,94.51h-45.67v94.9c13.19,33.06,53.25,46.75,85.39,45.36,29.85-1.24,65.2-15.78,76.61-52.67-6.96-25.25-30.82-38.86-50.51-38.86v-23.2c26.99,0,59.36,17.6,71.16,50.47,30.47-1.55,55.69-12.45,73.17-31.71,18.45-20.3,27.34-48.84,25.99-82.99-7.12.73-13.77,1.08-19.95,1.08-44.36,0-67.13-17.75-87.2-45.48l18.79-13.61c20.15,27.84,41.49,41.53,95.83,33.72t.08-.04c32.06-13.84,61.37-57.89,73.24-110.1,12.8-56.5,2.82-110.64-26.72-146.1ZM705.46,233.87h-61.14c-1.39,23.82-8.47,45.75-20.88,64.12-15.28,22.7-37.86,37.9-61.91,41.73l-3.63-22.93c17.71-2.82,34.61-14.39,46.33-31.75,16.75-24.79,21.46-58.08,13.3-93.74l22.58-5.18c1.89,8.31,3.21,16.51,3.91,24.56h53.02c-1.2-59.24-40.22-107.55-98.07-120.04-30.78,6.23-60.17,36.43-67.98,55.96l-21.54-8.59c10.05-25.14,39.95-54.95,72.59-66.63-15.89-24.32-45.56-42.62-77.73-47.1-34.61-4.83-66.32,7.15-89.64,33.76v160.22c51.63,5.8,91.88,49.69,91.88,102.83,0,47.88-32.68,88.29-76.92,100.04l37.32,150.16h-52.28v115.28h45.67c39.33,0,71.31-31.98,71.31-71.31v-47.26c-8.74-7.19-16.36-16.74-22.39-28.38l20.61-10.67c8.58,16.55,20.84,27.19,34.57,30.01,11.41,2.36,23.24-.93,33.3-9.2,11.56-9.47,18.18-24.21,18.18-40.41v-66.36c-10.48-2.63-20.65-7.58-29.78-14.81-10.94-8.7-25.1-15.51-42.07-20.26l6.3-22.35c19.92,5.61,36.82,13.81,50.2,24.4,17.09,13.54,39.06,15.82,55.96,5.8,15.31-9.09,24.09-32.29,24.09-63.61h23.2c0,5.26-.19,10.33-.62,15.2h44.28c13.84-49.89-14.46-117.1-42-133.46Z"/>
      <path class="cls-5" d="M239.29,762.42c-12.5-17.21-18.67-34.91-18.34-52.61l23.2.43c-.23,12.54,4.45,25.51,13.91,38.54l-18.77,13.64Z"/>
      <path class="cls-5" d="M566.78,762.42l-18.77-13.64c9.47-13.03,14.15-26,13.91-38.54l23.2-.43c.33,17.7-5.84,35.4-18.34,52.61Z"/>
      <ellipse class="cls-2" cx="403.03" cy="1030.92" rx="279.42" ry="24.68"/>
    </g>
  </g>
</svg>